<svg width="16" height="16" viewBox="0 0 16 16" fill="none" xmlns="http://www.w3.org/2000/svg">
<g clip-path="url(#clip0_2_3)">
<path d="M3.41667 2.50001H12.5833L7.99084 8.27501L3.41667 2.50001ZM0.895836 2.14251C2.7475 4.51667 6.16667 8.91667 6.16667 8.91667V14.4167C6.16667 14.9208 6.57917 15.3333 7.08334 15.3333H8.91667C9.42084 15.3333 9.83334 14.9208 9.83334 14.4167V8.91667C9.83334 8.91667 13.2433 4.51667 15.095 2.14251C15.2001 2.00718 15.265 1.84507 15.2825 1.67464C15.2999 1.50422 15.2691 1.33231 15.1937 1.17851C15.1182 1.02471 15.0011 0.895191 14.8556 0.8047C14.7101 0.71421 14.5422 0.666386 14.3708 0.666673H1.62C0.85917 0.666673 0.428336 1.53751 0.895836 2.14251Z" fill="white" fill-opacity="0.827451"/>
</g>
<defs>
<clipPath id="clip0_2_3">
<rect width="16" height="16" fill="white"/>
</clipPath>
</defs>
</svg>
