<svg width="16" height="16" viewBox="0 0 16 16" fill="none" xmlns="http://www.w3.org/2000/svg">
<g clip-path="url(#clip0_2_6)">
<path d="M15.1207 14.0793L12.4 11.3807C13.4561 10.0639 13.9675 8.39255 13.8291 6.71028C13.6908 5.02802 12.9131 3.4627 11.656 2.3362C10.399 1.2097 8.75812 0.607638 7.07081 0.653809C5.38349 0.69998 3.77799 1.39088 2.58443 2.58443C1.39088 3.77799 0.69998 5.38349 0.653809 7.07081C0.607638 8.75812 1.2097 10.399 2.3362 11.656C3.4627 12.9131 5.02802 13.6908 6.71028 13.8291C8.39255 13.9675 10.0639 13.4561 11.3807 12.4L14.0793 15.0987C14.1475 15.1674 14.2286 15.222 14.318 15.2592C14.4073 15.2964 14.5032 15.3156 14.6 15.3156C14.6968 15.3156 14.7927 15.2964 14.882 15.2592C14.9714 15.222 15.0525 15.1674 15.1207 15.0987C15.2528 14.9619 15.3267 14.7792 15.3267 14.589C15.3267 14.3988 15.2528 14.2161 15.1207 14.0793ZM7.26666 12.4C6.25139 12.4 5.25891 12.0989 4.41474 11.5349C3.57056 10.9708 2.91261 10.1691 2.52408 9.23111C2.13555 8.29311 2.0339 7.26097 2.23197 6.2652C2.43004 5.26943 2.91894 4.35476 3.63685 3.63685C4.35476 2.91894 5.26943 2.43004 6.2652 2.23197C7.26097 2.0339 8.29311 2.13555 9.23111 2.52408C10.1691 2.91261 10.9708 3.57056 11.5349 4.41474C12.0989 5.25891 12.4 6.25139 12.4 7.26666C12.4 8.62811 11.8592 9.93379 10.8965 10.8965C9.93379 11.8592 8.62811 12.4 7.26666 12.4Z" fill="white" fill-opacity="0.827451"/>
</g>
<defs>
<clipPath id="clip0_2_6">
<rect width="16" height="16" fill="white"/>
</clipPath>
</defs>
</svg>
